<svg xmlns="http://www.w3.org/2000/svg" width="41" height="42" viewBox="0 0 41 42" fill="none">
  <g clip-path="url(#clip0_24_53)">
    <path d="M40.5795 10.1549L26.5064 24.2279C24.9372 25.7931 22.8113 26.6721 20.595 26.6721C18.3786 26.6721 16.2528 25.7931 14.6836 24.2279L0.610532 10.1549C0.587127 10.419 0.53363 10.6581 0.53363 10.9206V30.9819C0.536285 33.198 1.4178 35.3226 2.98483 36.8896C4.55185 38.4567 6.67643 39.3382 8.89253 39.3408H32.2975C34.5136 39.3382 36.6381 38.4567 38.2052 36.8896C39.7722 35.3226 40.6537 33.198 40.6564 30.9819V10.9206C40.6564 10.6581 40.6029 10.419 40.5795 10.1549Z" fill="#6E697F"/>
    <path d="M24.1426 21.864L39.4127 6.59231C38.6729 5.36575 37.6296 4.35051 36.3833 3.64451C35.1371 2.9385 33.7299 2.56556 32.2976 2.56165H8.89263C7.46028 2.56556 6.05311 2.9385 4.80684 3.64451C3.56057 4.35051 2.51725 5.36575 1.77753 6.59231L17.0476 21.864C17.9897 22.8024 19.2653 23.3293 20.5951 23.3293C21.9249 23.3293 23.2004 22.8024 24.1426 21.864Z" fill="#6E697F"/>
  </g>
  <defs>
    <clipPath id="clip0_24_53">
      <rect width="40.1227" height="40.1227" fill="white" transform="translate(0.53363 0.889832)"/>
    </clipPath>
  </defs>
</svg>