<svg xmlns="http://www.w3.org/2000/svg" width="45" height="44" viewBox="0 0 45 44" fill="none">
  <path fill-rule="evenodd" clip-rule="evenodd" d="M22.3815 0.889832C10.3501 0.889832 0.595367 10.6427 0.595367 22.6759C0.595367 32.3017 6.83708 40.4679 15.4934 43.3491C16.5827 43.5506 16.9821 42.8771 16.9821 42.3016C16.9821 41.7823 16.9622 40.0667 16.9531 38.2457C10.8929 39.5638 9.61299 35.675 9.61299 35.675C8.62173 33.1568 7.19474 32.4869 7.19474 32.4869C5.21765 31.1344 7.34361 31.1634 7.34361 31.1634C9.5313 31.3177 10.6823 33.4092 10.6823 33.4092C12.6249 36.7388 15.7785 35.7766 17.0221 35.2193C17.2182 33.8104 17.7828 32.85 18.4055 32.3054C13.5672 31.7553 8.48012 29.8871 8.48012 21.5394C8.48012 19.1611 9.33159 17.2167 10.7259 15.6917C10.499 15.1416 9.75279 12.9266 10.9365 9.92561C10.9365 9.92561 12.7665 9.34102 16.9295 12.1587C18.6669 11.6758 20.5296 11.4343 22.3815 11.4252C24.2333 11.4343 26.0978 11.6758 27.8389 12.1587C31.9964 9.3392 33.8246 9.92561 33.8246 9.92561C35.0101 12.9266 34.264 15.1416 34.0388 15.6917C35.435 17.2167 36.281 19.1611 36.281 21.5394C36.281 29.9071 31.1849 31.7498 26.3338 32.289C27.1145 32.9644 27.8116 34.2915 27.8116 36.3231C27.8116 39.2388 27.7862 41.5844 27.7862 42.3016C27.7862 42.8807 28.1784 43.5615 29.2822 43.3473C37.9349 40.4624 44.1694 32.2999 44.1694 22.6777C44.1676 10.6446 34.4128 0.889832 22.3815 0.889832Z" fill="#6E697F"/>
  <path d="M8.84684 32.171C8.79964 32.2799 8.62898 32.3126 8.47285 32.2382C8.3149 32.1674 8.22594 32.0185 8.27677 31.9114C8.32398 31.8006 8.49463 31.7698 8.65258 31.8442C8.81053 31.9132 8.90131 32.0621 8.84684 32.171Z" fill="#6E697F"/>
  <path d="M9.72919 33.155C9.6257 33.2513 9.42237 33.2059 9.28439 33.0552C9.14096 32.9027 9.11555 32.6993 9.22085 32.6031C9.32796 32.5069 9.52404 32.5523 9.66746 32.7048C9.81089 32.8555 9.83812 33.057 9.72919 33.155Z" fill="#6E697F"/>
  <path d="M10.5879 34.4096C10.4536 34.5022 10.2357 34.415 10.1013 34.2226C9.967 34.0283 9.967 33.7959 10.105 33.7033C10.2393 33.6107 10.4554 33.6943 10.5915 33.8867C10.7241 34.0828 10.7241 34.3152 10.5879 34.4096Z" fill="#6E697F"/>
  <path d="M11.7644 35.6223C11.6446 35.7549 11.3904 35.7185 11.2052 35.5388C11.0146 35.3627 10.9619 35.114 11.0818 34.9814C11.2034 34.8489 11.4594 34.887 11.6464 35.065C11.8352 35.2411 11.8915 35.4916 11.7644 35.6223Z" fill="#6E697F"/>
  <path d="M13.3892 36.3249C13.3366 36.4956 13.0915 36.5737 12.8446 36.501C12.5977 36.4266 12.4361 36.2269 12.4869 36.0544C12.5378 35.882 12.7847 35.8021 13.0334 35.8801C13.2785 35.9528 13.4401 36.1525 13.3892 36.3249Z" fill="#6E697F"/>
  <path d="M15.1721 36.4557C15.1775 36.6354 14.9687 36.7843 14.7091 36.7879C14.4495 36.7934 14.2371 36.6481 14.2353 36.472C14.2353 36.2905 14.4404 36.1434 14.7 36.138C14.9596 36.1325 15.1721 36.2778 15.1721 36.4557Z" fill="#6E697F"/>
  <path d="M16.8315 36.1742C16.8623 36.3485 16.6826 36.5301 16.4248 36.5773C16.1724 36.6245 15.9382 36.5155 15.9056 36.3412C15.8747 36.1615 16.0581 35.9818 16.3104 35.9346C16.5664 35.8892 16.7988 35.9945 16.8315 36.1742Z" fill="#6E697F"/>
</svg>