<svg xmlns="http://www.w3.org/2000/svg" width="44" height="44" viewBox="0 0 44 44" fill="none">
  <g clip-path="url(#clip0_24_43)">
    <path d="M21.5986 4.75066C27.3202 4.75066 27.9987 4.77209 30.2577 4.87566C32.5935 4.98281 34.9989 5.51496 36.7008 7.2168C38.4187 8.93471 38.9348 11.3169 39.0419 13.6598C39.1455 15.9188 39.1669 16.5974 39.1669 22.319C39.1669 28.0406 39.1455 28.7192 39.0419 30.9782C38.9366 33.3015 38.3919 35.7301 36.7008 37.4212C34.9829 39.1391 32.6025 39.6552 30.2577 39.7624C27.9987 39.866 27.3202 39.8874 21.5986 39.8874C15.877 39.8874 15.1984 39.866 12.9394 39.7624C10.634 39.657 8.17317 39.0999 6.49634 37.4212C4.78736 35.7123 4.26235 33.3068 4.1552 30.9782C4.05163 28.7192 4.0302 28.0406 4.0302 22.319C4.0302 16.5974 4.05163 15.9188 4.1552 13.6598C4.26056 11.3455 4.81058 8.90256 6.49634 7.2168C8.21068 5.50246 10.6018 4.98281 12.9394 4.87566C15.1984 4.77209 15.877 4.75066 21.5986 4.75066ZM21.5986 0.889832C15.7788 0.889832 15.0484 0.914832 12.7626 1.01841C9.45 1.1702 6.16062 2.09165 3.7659 4.48636C1.36226 6.89 0.449738 10.1722 0.297948 13.4831C0.194373 15.7688 0.169373 16.4992 0.169373 22.319C0.169373 28.1388 0.194373 28.8692 0.297948 31.155C0.449738 34.464 1.37476 37.7623 3.7659 40.1517C6.16776 42.5535 9.45535 43.4678 12.7626 43.6196C15.0484 43.7232 15.7788 43.7482 21.5986 43.7482C27.4184 43.7482 28.1488 43.7232 30.4345 43.6196C33.7453 43.4678 37.0383 42.5446 39.4312 40.1517C41.8366 37.7463 42.7474 34.4658 42.8992 31.155C43.0027 28.8692 43.0278 28.1388 43.0278 22.319C43.0278 16.4992 43.0027 15.7688 42.8992 13.4831C42.7474 10.1705 41.8241 6.87929 39.4312 4.48636C37.0329 2.08808 33.7364 1.16841 30.4345 1.01841C28.1488 0.914832 27.4184 0.889832 21.5986 0.889832Z" fill="#6E697F"/>
    <path d="M21.5985 11.3152C15.5216 11.3152 10.5946 16.2421 10.5946 22.319C10.5946 28.396 15.5216 33.3229 21.5985 33.3229C27.6755 33.3229 32.6024 28.396 32.6024 22.319C32.6024 16.2421 27.6755 11.3152 21.5985 11.3152ZM21.5985 29.4621C17.6538 29.4621 14.4555 26.2638 14.4555 22.319C14.4555 18.3743 17.6538 15.176 21.5985 15.176C25.5433 15.176 28.7416 18.3743 28.7416 22.319C28.7416 26.2638 25.5433 29.4621 21.5985 29.4621Z" fill="#6E697F"/>
    <path d="M33.0382 13.4509C34.4584 13.4509 35.6097 12.2996 35.6097 10.8794C35.6097 9.45922 34.4584 8.30792 33.0382 8.30792C31.618 8.30792 30.4667 9.45922 30.4667 10.8794C30.4667 12.2996 31.618 13.4509 33.0382 13.4509Z" fill="#6E697F"/>
  </g>
  <defs>
    <clipPath id="clip0_24_43">
      <rect width="42.8584" height="42.8584" fill="white" transform="translate(0.169373 0.889832)"/>
    </clipPath>
  </defs>
</svg>