<svg xmlns="http://www.w3.org/2000/svg" width="50" height="43" viewBox="0 0 50 43" fill="none">
  <path d="M47.5395 41.5924H48.0071L47.111 40.237C47.659 40.237 47.9494 39.8888 47.9535 39.4624C47.9535 39.4459 47.9535 39.4274 47.9515 39.4109C47.9515 38.83 47.6013 38.5519 46.8824 38.5519H45.7206V41.5924H46.1573V40.2678H46.6949L47.5395 41.5924ZM46.664 39.9238H46.1573V38.8959H46.8C47.1316 38.8959 47.5106 38.9495 47.5106 39.3841C47.5106 39.8826 47.1296 39.9238 46.664 39.9238Z" fill="#6E697F"/>
  <path d="M35.7753 36.42H29.5811V26.7198C29.5811 24.4066 29.5399 21.43 26.3594 21.43C23.1336 21.43 22.6392 23.9493 22.6392 26.553V36.42H16.4471V16.4718H22.3941V19.197H22.4765C23.6898 17.1248 25.9433 15.8868 28.3431 15.9753C34.6217 15.9753 35.7773 20.1055 35.7773 25.4757L35.7753 36.42ZM9.45785 13.7445C7.47209 13.7445 5.8633 12.1357 5.8633 10.1499C5.8633 8.16416 7.47209 6.55537 9.45785 6.55537C11.4436 6.55537 13.0524 8.16416 13.0524 10.1499C13.0524 12.1357 11.4436 13.7445 9.45785 13.7445ZM12.5539 36.42H6.35356V16.4718H12.5539V36.42ZM38.8631 0.804099H3.24104C1.55809 0.78556 0.177948 2.1348 0.157349 3.81775V39.5861C0.177948 41.2711 1.55809 42.6203 3.24104 42.6018H38.8631C40.5502 42.6224 41.9365 41.2731 41.9591 39.5861V3.81569C41.9344 2.12862 40.5481 0.77938 38.8631 0.802039" fill="#6E697F"/>
  <path d="M46.7175 37.1986C45.1438 37.213 43.879 38.5025 43.8955 40.0763C43.9099 41.6501 45.1994 42.9149 46.7731 42.8984C48.3469 42.884 49.6117 41.5945 49.5952 40.0207C49.5808 38.4675 48.3243 37.213 46.7731 37.1986H46.7175ZM46.7835 42.5709C45.4033 42.5935 44.2003 41.4956 44.1777 40.1154C44.155 38.7353 45.255 37.5982 46.6351 37.5756C48.0153 37.5529 49.1523 38.6529 49.175 40.033C49.175 40.0475 49.175 40.0598 49.175 40.0742C49.2038 41.4235 48.1327 42.542 46.7835 42.5709H46.7196Z" fill="#6E697F"/>
</svg>