<svg xmlns="http://www.w3.org/2000/svg" width="47" height="39" viewBox="0 0 47 39" fill="none">
  <path d="M41.7726 9.93249C41.7997 10.337 41.7997 10.7435 41.7997 11.1519C41.7997 23.6274 32.2001 38.0126 14.6519 38.0126V38.0049C9.46844 38.0126 4.39154 36.544 0.0277405 33.7735C0.781524 33.8636 1.53918 33.9077 2.29878 33.9097C6.5967 33.9135 10.7706 32.4871 14.1481 29.8604C10.0653 29.7837 6.48431 27.1494 5.23446 23.3034C6.66452 23.5757 8.13721 23.5201 9.54207 23.1424C5.08913 22.2528 1.88798 18.3818 1.88798 13.8878C1.88798 13.8475 1.88798 13.8073 1.88798 13.7689C3.21533 14.5013 4.69965 14.9058 6.21884 14.9499C2.02556 12.1795 0.731142 6.66166 3.26378 2.34784C8.10814 8.24531 15.2565 11.8306 22.928 12.2121C22.1587 8.9336 23.2109 5.49788 25.6874 3.19143C29.5299 -0.384251 35.5738 -0.200195 39.1876 3.60172C41.325 3.18567 43.3732 2.40919 45.247 1.3106C44.5339 3.49627 43.0438 5.35217 41.0518 6.5332C42.9449 6.30888 44.7916 5.80848 46.5336 5.04541C45.2528 6.94157 43.6406 8.59616 41.7726 9.93249Z" fill="#6E697F"/>
</svg>